<svg width="189.972" height="32.526" viewBox="0 0 189.972 32.526" xmlns="http://www.w3.org/2000/svg"><g id="svgGroup" stroke-linecap="round" fill-rule="evenodd" font-size="9pt" stroke="#000" stroke-width="0.25mm" fill="#000" style="stroke:#000;stroke-width:0.25mm;fill:#000"><path d="M 176.562 15.858 L 174.492 15.858 L 174.492 26.028 L 169.65 26.028 L 169.65 0 L 177.588 0 Q 180.252 0 182.151 0.549 A 10.701 10.701 0 0 1 183.679 1.112 Q 184.468 1.478 185.09 1.951 A 6.46 6.46 0 0 1 185.265 2.088 Q 186.48 3.078 187.047 4.455 A 7.572 7.572 0 0 1 187.579 6.678 A 9.104 9.104 0 0 1 187.614 7.488 A 7.974 7.974 0 0 1 187.338 9.603 A 7.391 7.391 0 0 1 187.227 9.972 Q 186.84 11.142 186.111 12.096 Q 185.382 13.05 184.311 13.77 A 9.05 9.05 0 0 1 182.558 14.68 A 10.738 10.738 0 0 1 181.872 14.922 A 4.605 4.605 0 0 1 183.13 15.985 A 5.627 5.627 0 0 1 183.456 16.416 L 189.972 26.028 L 185.616 26.028 Q 184.986 26.028 184.545 25.776 A 2.125 2.125 0 0 1 183.917 25.224 A 2.569 2.569 0 0 1 183.798 25.056 L 178.326 16.722 A 2.577 2.577 0 0 0 178.088 16.409 Q 177.882 16.18 177.651 16.056 Q 177.302 15.869 176.64 15.859 A 5.028 5.028 0 0 0 176.562 15.858 Z M 38.358 8.19 L 43.668 8.19 L 43.668 9.846 Q 43.668 10.26 43.452 10.494 A 0.788 0.788 0 0 1 43.248 10.649 Q 43.054 10.754 42.755 10.811 A 2.805 2.805 0 0 1 42.714 10.818 L 41.058 11.124 Q 41.238 11.592 41.337 12.114 A 5.751 5.751 0 0 1 41.433 12.998 A 6.53 6.53 0 0 1 41.436 13.212 A 5.884 5.884 0 0 1 41.242 14.745 A 5.087 5.087 0 0 1 40.887 15.687 Q 40.338 16.794 39.375 17.568 A 6.673 6.673 0 0 1 37.805 18.499 A 8.112 8.112 0 0 1 37.089 18.765 A 8.976 8.976 0 0 1 35.024 19.158 A 10.711 10.711 0 0 1 34.218 19.188 Q 33.174 19.188 32.184 18.99 Q 31.72 19.27 31.505 19.587 A 1.005 1.005 0 0 0 31.32 20.16 A 0.944 0.944 0 0 0 31.391 20.535 Q 31.487 20.758 31.711 20.908 A 1.201 1.201 0 0 0 31.833 20.979 Q 32.219 21.175 32.788 21.285 A 6.443 6.443 0 0 0 33.183 21.348 A 15.604 15.604 0 0 0 34.047 21.434 Q 34.534 21.469 35.082 21.483 Q 36.144 21.51 37.26 21.6 Q 38.376 21.69 39.438 21.915 A 6.836 6.836 0 0 1 40.678 22.298 A 5.78 5.78 0 0 1 41.337 22.626 Q 42.174 23.112 42.687 23.949 A 3.247 3.247 0 0 1 43.064 24.872 Q 43.2 25.423 43.2 26.1 A 5.035 5.035 0 0 1 42.652 28.368 A 5.89 5.89 0 0 1 42.597 28.476 A 6.109 6.109 0 0 1 41.389 30.062 A 7.446 7.446 0 0 1 40.851 30.528 A 8.131 8.131 0 0 1 39.358 31.451 A 10.772 10.772 0 0 1 38.052 31.977 A 10.494 10.494 0 0 1 36.101 32.413 A 14.181 14.181 0 0 1 34.272 32.526 A 18.477 18.477 0 0 1 32.594 32.454 Q 31.513 32.355 30.618 32.121 Q 29.3 31.776 28.367 31.236 A 6.068 6.068 0 0 1 28.053 31.041 A 5.512 5.512 0 0 1 27.218 30.369 A 4.131 4.131 0 0 1 26.532 29.484 A 3.76 3.76 0 0 1 26.072 28.208 A 3.53 3.53 0 0 1 26.028 27.648 A 3.5 3.5 0 0 1 26.202 26.524 A 2.994 2.994 0 0 1 26.82 25.47 A 4.607 4.607 0 0 1 27.834 24.635 Q 28.292 24.351 28.854 24.128 A 7.937 7.937 0 0 1 29.016 24.066 Q 28.332 23.688 27.918 23.058 A 2.36 2.36 0 0 1 27.608 22.337 Q 27.504 21.926 27.504 21.42 A 2.617 2.617 0 0 1 27.578 20.811 A 3.148 3.148 0 0 1 27.648 20.565 A 3.224 3.224 0 0 1 27.918 19.963 A 3.911 3.911 0 0 1 28.089 19.692 A 4.049 4.049 0 0 1 28.563 19.126 A 4.913 4.913 0 0 1 28.836 18.873 A 4.758 4.758 0 0 1 29.462 18.421 A 5.918 5.918 0 0 1 29.898 18.18 A 6.022 6.022 0 0 1 28.253 16.902 A 5.606 5.606 0 0 1 27.693 16.164 A 5.118 5.118 0 0 1 26.942 14.031 A 6.527 6.527 0 0 1 26.892 13.212 A 5.884 5.884 0 0 1 27.086 11.68 A 5.087 5.087 0 0 1 27.441 10.737 Q 27.99 9.63 28.971 8.847 A 6.674 6.674 0 0 1 30.625 7.888 A 8.068 8.068 0 0 1 31.293 7.65 A 9.325 9.325 0 0 1 33.252 7.277 A 11.303 11.303 0 0 1 34.218 7.236 A 10.318 10.318 0 0 1 35.783 7.351 A 8.877 8.877 0 0 1 36.45 7.479 A 7.875 7.875 0 0 1 37.886 7.957 A 6.969 6.969 0 0 1 38.358 8.19 Z M 70.146 26.028 L 65.7 26.028 L 65.7 7.56 L 68.418 7.56 A 1.395 1.395 0 0 1 68.873 7.63 Q 69.281 7.77 69.481 8.193 A 1.585 1.585 0 0 1 69.552 8.37 L 69.858 9.828 Q 70.416 9.252 71.037 8.784 Q 71.658 8.316 72.351 7.974 Q 73.044 7.632 73.836 7.452 A 7.197 7.197 0 0 1 74.882 7.297 A 8.936 8.936 0 0 1 75.564 7.272 A 7.592 7.592 0 0 1 76.985 7.399 A 5.858 5.858 0 0 1 78.246 7.785 A 5.319 5.319 0 0 1 80.1 9.111 A 5.208 5.208 0 0 1 80.199 9.225 A 6.088 6.088 0 0 1 81.176 10.856 A 7.334 7.334 0 0 1 81.387 11.439 A 8.762 8.762 0 0 1 81.744 13.241 A 10.873 10.873 0 0 1 81.792 14.274 L 81.792 26.028 L 77.346 26.028 L 77.346 14.274 Q 77.346 12.582 76.563 11.655 Q 75.78 10.728 74.214 10.728 Q 73.062 10.728 72.054 11.25 A 7.37 7.37 0 0 0 70.661 12.196 A 8.867 8.867 0 0 0 70.146 12.672 L 70.146 26.028 Z M 15.174 0 L 25.398 26.028 L 21.654 26.028 A 2.067 2.067 0 0 1 21.196 25.98 A 1.448 1.448 0 0 1 20.619 25.713 Q 20.214 25.398 20.034 24.93 L 18.09 19.62 L 7.308 19.62 L 5.364 24.93 Q 5.222 25.339 4.808 25.677 A 2.535 2.535 0 0 1 4.797 25.686 A 1.53 1.53 0 0 1 3.994 26.015 A 2.009 2.009 0 0 1 3.762 26.028 L 0 26.028 L 10.224 0 L 15.174 0 Z M 156.582 0 L 166.806 26.028 L 163.062 26.028 A 2.067 2.067 0 0 1 162.604 25.98 A 1.448 1.448 0 0 1 162.027 25.713 Q 161.622 25.398 161.442 24.93 L 159.498 19.62 L 148.716 19.62 L 146.772 24.93 Q 146.63 25.339 146.216 25.677 A 2.535 2.535 0 0 1 146.205 25.686 A 1.53 1.53 0 0 1 145.402 26.015 A 2.009 2.009 0 0 1 145.17 26.028 L 141.408 26.028 L 151.632 0 L 156.582 0 Z M 119.952 7.56 L 109.89 31.104 A 2.192 2.192 0 0 1 109.712 31.444 Q 109.59 31.631 109.44 31.763 A 1.293 1.293 0 0 1 109.377 31.815 A 0.992 0.992 0 0 1 109.087 31.966 Q 108.814 32.058 108.414 32.058 L 105.102 32.058 L 108.558 24.66 L 101.088 7.56 L 104.976 7.56 Q 105.347 7.56 105.599 7.679 A 0.878 0.878 0 0 1 105.804 7.812 A 1.715 1.715 0 0 1 106.138 8.202 A 1.561 1.561 0 0 1 106.236 8.388 L 110.178 17.964 Q 110.376 18.432 110.52 18.936 Q 110.664 19.44 110.772 19.944 Q 110.916 19.422 111.087 18.936 Q 111.258 18.45 111.456 17.946 L 115.164 8.388 Q 115.308 8.028 115.641 7.794 Q 115.974 7.56 116.388 7.56 L 119.952 7.56 Z M 61.056 17.352 L 49.644 17.352 A 10.501 10.501 0 0 0 49.862 18.907 Q 50.041 19.71 50.347 20.343 A 4.322 4.322 0 0 0 51.174 21.528 A 4.47 4.47 0 0 0 53.689 22.782 A 6.318 6.318 0 0 0 54.702 22.86 Q 55.622 22.86 56.326 22.677 A 4.327 4.327 0 0 0 56.565 22.608 Q 57.348 22.356 57.933 22.05 Q 58.436 21.787 58.832 21.564 A 22.367 22.367 0 0 0 58.959 21.492 Q 59.4 21.24 59.814 21.24 A 1.138 1.138 0 0 1 60.044 21.262 A 0.854 0.854 0 0 1 60.282 21.348 A 1.014 1.014 0 0 1 60.582 21.6 A 1.199 1.199 0 0 1 60.624 21.654 L 61.92 23.274 Q 61.182 24.138 60.264 24.723 Q 59.346 25.308 58.347 25.659 Q 57.348 26.01 56.313 26.154 A 14.812 14.812 0 0 1 54.611 26.295 A 13.325 13.325 0 0 1 54.306 26.298 A 10.218 10.218 0 0 1 51.677 25.968 A 9.184 9.184 0 0 1 50.724 25.659 Q 49.068 25.02 47.844 23.769 A 8.416 8.416 0 0 1 46.354 21.664 A 10.336 10.336 0 0 1 45.918 20.673 A 10.358 10.358 0 0 1 45.37 18.548 Q 45.216 17.537 45.216 16.398 Q 45.216 14.508 45.828 12.843 A 8.584 8.584 0 0 1 47.442 10.101 A 8.257 8.257 0 0 1 47.583 9.945 A 8.186 8.186 0 0 1 50.119 8.108 A 9.461 9.461 0 0 1 50.373 7.992 A 8.565 8.565 0 0 1 52.777 7.35 A 10.809 10.809 0 0 1 54.09 7.272 A 9.55 9.55 0 0 1 56.164 7.49 A 8.193 8.193 0 0 1 57.303 7.83 Q 58.77 8.388 59.832 9.459 A 7.188 7.188 0 0 1 61.206 11.429 A 8.617 8.617 0 0 1 61.488 12.087 Q 62.082 13.644 62.082 15.642 Q 62.082 16.005 62.059 16.279 A 4.078 4.078 0 0 1 62.037 16.479 A 2.033 2.033 0 0 1 61.999 16.687 Q 61.974 16.787 61.941 16.869 A 0.868 0.868 0 0 1 61.875 17.001 Q 61.758 17.19 61.56 17.271 A 0.973 0.973 0 0 1 61.381 17.324 Q 61.292 17.341 61.187 17.348 A 2.053 2.053 0 0 1 61.056 17.352 Z M 100.314 9.846 L 99.144 11.466 Q 98.983 11.671 98.827 11.805 A 1.528 1.528 0 0 1 98.757 11.862 A 0.621 0.621 0 0 1 98.569 11.957 Q 98.484 11.985 98.38 11.997 A 1.499 1.499 0 0 1 98.208 12.006 A 1.171 1.171 0 0 1 97.686 11.88 A 1.484 1.484 0 0 1 97.542 11.799 A 16.024 16.024 0 0 0 97.281 11.636 Q 97.165 11.565 97.037 11.489 A 28.924 28.924 0 0 0 96.768 11.331 Q 96.318 11.07 95.697 10.863 Q 95.076 10.656 94.158 10.656 A 5.49 5.49 0 0 0 93.124 10.749 A 4.15 4.15 0 0 0 92.106 11.079 Q 91.224 11.502 90.639 12.294 Q 90.054 13.086 89.766 14.211 A 8.924 8.924 0 0 0 89.541 15.49 A 12.126 12.126 0 0 0 89.478 16.758 A 11.856 11.856 0 0 0 89.547 18.071 Q 89.626 18.774 89.793 19.386 A 6.624 6.624 0 0 0 90.15 20.385 A 4.905 4.905 0 0 0 90.702 21.321 Q 91.296 22.104 92.142 22.509 A 4.134 4.134 0 0 0 93.47 22.882 A 5.132 5.132 0 0 0 94.05 22.914 A 7.07 7.07 0 0 0 94.732 22.883 Q 95.063 22.851 95.342 22.785 A 3.056 3.056 0 0 0 95.769 22.653 A 6.713 6.713 0 0 0 96.304 22.414 Q 96.623 22.254 96.876 22.077 A 22.588 22.588 0 0 0 97.247 21.812 Q 97.416 21.689 97.563 21.576 A 12.838 12.838 0 0 0 97.659 21.501 Q 97.992 21.24 98.406 21.24 A 1.115 1.115 0 0 1 98.745 21.289 A 0.863 0.863 0 0 1 99.216 21.654 L 100.494 23.274 Q 99.756 24.138 98.892 24.723 Q 98.028 25.308 97.101 25.659 Q 96.174 26.01 95.184 26.154 Q 94.194 26.298 93.222 26.298 Q 91.512 26.298 90 25.659 Q 88.488 25.02 87.363 23.796 A 8.444 8.444 0 0 1 86.037 21.854 A 10.445 10.445 0 0 1 85.581 20.799 A 10.322 10.322 0 0 1 85.041 18.584 A 13.686 13.686 0 0 1 84.924 16.758 A 12.417 12.417 0 0 1 85.175 14.22 A 10.696 10.696 0 0 1 85.509 12.987 A 8.803 8.803 0 0 1 86.664 10.688 A 8.045 8.045 0 0 1 87.228 9.981 A 7.792 7.792 0 0 1 89.727 8.132 A 9.061 9.061 0 0 1 90.036 7.992 A 8.678 8.678 0 0 1 92.202 7.391 A 11.5 11.5 0 0 1 93.888 7.272 A 10.897 10.897 0 0 1 95.687 7.414 A 7.983 7.983 0 0 1 97.515 7.938 Q 99.072 8.604 100.314 9.846 Z M 127.116 28.44 L 141.3 28.44 L 141.3 31.32 L 127.116 31.32 L 127.116 28.44 Z M 11.718 7.578 L 8.55 16.2 L 16.848 16.2 L 13.68 7.542 A 29.812 29.812 0 0 1 13.512 7.081 Q 13.439 6.877 13.362 6.652 A 52.939 52.939 0 0 1 13.203 6.183 A 29.739 29.739 0 0 1 12.944 5.366 A 36.833 36.833 0 0 1 12.69 4.482 A 66.5 66.5 0 0 1 12.44 5.369 A 53.996 53.996 0 0 1 12.195 6.192 Q 11.986 6.873 11.784 7.407 A 13.502 13.502 0 0 1 11.718 7.578 Z M 153.126 7.578 L 149.958 16.2 L 158.256 16.2 L 155.088 7.542 A 29.812 29.812 0 0 1 154.92 7.081 Q 154.847 6.877 154.77 6.652 A 52.939 52.939 0 0 1 154.611 6.183 A 29.739 29.739 0 0 1 154.352 5.366 A 36.833 36.833 0 0 1 154.098 4.482 A 66.5 66.5 0 0 1 153.848 5.369 A 53.996 53.996 0 0 1 153.603 6.192 Q 153.394 6.873 153.192 7.407 A 13.502 13.502 0 0 1 153.126 7.578 Z M 174.492 3.744 L 174.492 12.384 L 177.516 12.384 A 9.251 9.251 0 0 0 178.646 12.319 Q 179.233 12.246 179.738 12.094 A 5.414 5.414 0 0 0 179.901 12.042 A 5.406 5.406 0 0 0 180.775 11.664 A 4.056 4.056 0 0 0 181.575 11.097 Q 182.232 10.494 182.556 9.666 A 4.746 4.746 0 0 0 182.86 8.333 A 5.703 5.703 0 0 0 182.88 7.848 A 4.805 4.805 0 0 0 182.726 6.595 A 3.382 3.382 0 0 0 181.575 4.806 A 4.058 4.058 0 0 0 180.345 4.138 Q 179.222 3.744 177.588 3.744 L 174.492 3.744 Z M 39.096 26.856 A 1.47 1.47 0 0 0 39.043 26.45 A 1.137 1.137 0 0 0 38.772 25.974 A 1.83 1.83 0 0 0 38.348 25.646 Q 38.143 25.529 37.89 25.443 Q 37.332 25.254 36.585 25.164 A 22.879 22.879 0 0 0 35.515 25.062 A 26.88 26.88 0 0 0 35.001 25.029 Q 34.164 24.984 33.273 24.939 A 22.066 22.066 0 0 1 31.762 24.812 A 19.989 19.989 0 0 1 31.554 24.786 A 4.596 4.596 0 0 0 30.872 25.238 A 3.558 3.558 0 0 0 30.339 25.767 Q 29.88 26.334 29.88 27.072 Q 29.88 27.558 30.123 27.981 A 1.738 1.738 0 0 0 30.475 28.409 Q 30.642 28.559 30.86 28.688 A 3.016 3.016 0 0 0 30.897 28.71 A 3.375 3.375 0 0 0 31.38 28.936 Q 31.625 29.03 31.913 29.104 A 6.852 6.852 0 0 0 32.274 29.187 A 7.615 7.615 0 0 0 32.962 29.291 Q 33.579 29.358 34.344 29.358 A 13.749 13.749 0 0 0 35.297 29.327 Q 35.747 29.296 36.14 29.233 A 7.244 7.244 0 0 0 36.486 29.169 A 6.869 6.869 0 0 0 37.141 28.999 Q 37.615 28.85 37.971 28.647 A 2.837 2.837 0 0 0 38.394 28.356 Q 38.666 28.128 38.826 27.855 Q 39.096 27.396 39.096 26.856 Z M 49.734 14.67 L 58.086 14.67 Q 58.086 13.806 57.852 13.041 A 3.806 3.806 0 0 0 57.278 11.885 A 3.599 3.599 0 0 0 57.132 11.7 A 3.367 3.367 0 0 0 56.046 10.856 A 3.944 3.944 0 0 0 55.908 10.791 A 3.655 3.655 0 0 0 54.998 10.522 A 5.007 5.007 0 0 0 54.18 10.458 A 5.553 5.553 0 0 0 52.943 10.588 Q 52.028 10.797 51.372 11.342 A 3.459 3.459 0 0 0 51.138 11.556 A 4.474 4.474 0 0 0 50.195 12.981 Q 49.942 13.574 49.799 14.294 A 8.548 8.548 0 0 0 49.734 14.67 Z M 34.218 16.344 A 5.141 5.141 0 0 0 34.901 16.301 Q 35.314 16.246 35.658 16.119 A 3.146 3.146 0 0 0 36.25 15.832 A 2.541 2.541 0 0 0 36.675 15.498 Q 37.08 15.102 37.287 14.544 A 3.337 3.337 0 0 0 37.479 13.666 A 4.027 4.027 0 0 0 37.494 13.32 A 3.692 3.692 0 0 0 37.384 12.392 A 2.618 2.618 0 0 0 36.675 11.151 A 2.565 2.565 0 0 0 35.689 10.563 Q 35.063 10.35 34.218 10.35 A 5.336 5.336 0 0 0 33.296 10.424 Q 32.798 10.512 32.406 10.702 A 2.431 2.431 0 0 0 31.761 11.151 A 2.662 2.662 0 0 0 31.007 12.593 A 3.866 3.866 0 0 0 30.942 13.32 A 3.573 3.573 0 0 0 31.047 14.196 A 3.188 3.188 0 0 0 31.149 14.526 Q 31.356 15.084 31.761 15.489 A 2.561 2.561 0 0 0 32.403 15.952 A 3.248 3.248 0 0 0 32.787 16.119 A 3.632 3.632 0 0 0 33.5 16.295 A 4.965 4.965 0 0 0 34.218 16.344 Z" vector-effect="non-scaling-stroke"/></g></svg>