<svg width="527.7" height="90.35" viewBox="0 0 527.7 90.35" xmlns="http://www.w3.org/2000/svg"><g id="svgGroup" stroke-linecap="round" fill-rule="evenodd" font-size="9pt" stroke="#75FBB9" stroke-width="0" fill="#75FBB9" style="stroke:#75FBB9;stroke-width:0;fill:#75FBB9"><path d="M 490.45 44.05 L 484.7 44.05 L 484.7 72.3 L 471.25 72.3 L 471.25 0 L 493.3 0 Q 499.464 0 504.154 1.058 A 31.607 31.607 0 0 1 505.975 1.525 Q 510.878 2.943 514.14 5.419 A 17.942 17.942 0 0 1 514.625 5.8 A 16.632 16.632 0 0 1 519.153 11.436 A 16.301 16.301 0 0 1 519.575 12.375 A 21.033 21.033 0 0 1 521.052 18.549 A 25.29 25.29 0 0 1 521.15 20.8 A 22.149 22.149 0 0 1 520.385 26.675 A 20.53 20.53 0 0 1 520.075 27.7 Q 519 30.95 516.975 33.6 Q 514.95 36.25 511.975 38.25 A 25.14 25.14 0 0 1 507.105 40.778 A 29.827 29.827 0 0 1 505.2 41.45 A 12.792 12.792 0 0 1 508.694 44.403 A 15.632 15.632 0 0 1 509.6 45.6 L 527.7 72.3 L 515.6 72.3 A 7.29 7.29 0 0 1 514.217 72.176 Q 513.361 72.01 512.669 71.625 A 4.598 4.598 0 0 1 512.625 71.6 A 5.903 5.903 0 0 1 510.882 70.067 A 7.135 7.135 0 0 1 510.55 69.6 L 495.35 46.45 A 7.158 7.158 0 0 0 494.688 45.581 Q 494.116 44.944 493.475 44.6 A 3.774 3.774 0 0 0 492.666 44.29 Q 491.845 44.07 490.666 44.052 A 13.971 13.971 0 0 0 490.45 44.05 Z M 106.55 22.75 L 121.3 22.75 L 121.3 27.35 Q 121.3 28.276 120.911 28.878 A 2.006 2.006 0 0 1 120.7 29.15 A 2.189 2.189 0 0 1 120.134 29.58 Q 119.596 29.874 118.764 30.03 A 7.791 7.791 0 0 1 118.65 30.05 L 114.05 30.9 A 15.806 15.806 0 0 1 114.79 33.47 A 17.38 17.38 0 0 1 114.825 33.65 Q 115.1 35.1 115.1 36.7 A 16.344 16.344 0 0 1 114.562 40.957 A 14.13 14.13 0 0 1 113.575 43.575 Q 112.05 46.65 109.375 48.8 A 18.537 18.537 0 0 1 105.013 51.387 A 22.534 22.534 0 0 1 103.025 52.125 A 24.933 24.933 0 0 1 97.29 53.217 A 29.754 29.754 0 0 1 95.05 53.3 Q 92.15 53.3 89.4 52.75 Q 88.111 53.529 87.514 54.409 A 2.792 2.792 0 0 0 87 56 Q 87 57.353 88.085 58.077 A 3.337 3.337 0 0 0 88.425 58.275 A 8.158 8.158 0 0 0 89.676 58.777 Q 90.758 59.117 92.175 59.3 A 43.343 43.343 0 0 0 94.574 59.538 Q 95.76 59.624 97.072 59.665 A 70.859 70.859 0 0 0 97.45 59.675 Q 100.4 59.75 103.5 60 Q 106.6 60.25 109.55 60.875 A 18.988 18.988 0 0 1 112.993 61.94 A 16.056 16.056 0 0 1 114.825 62.85 Q 117.15 64.2 118.575 66.525 A 9.02 9.02 0 0 1 119.621 69.088 Q 119.905 70.235 119.976 71.579 A 17.432 17.432 0 0 1 120 72.5 A 13.987 13.987 0 0 1 118.478 78.8 A 16.358 16.358 0 0 1 118.325 79.1 A 16.969 16.969 0 0 1 114.969 83.506 A 20.683 20.683 0 0 1 113.475 84.8 A 22.585 22.585 0 0 1 109.328 87.365 A 29.922 29.922 0 0 1 105.7 88.825 A 29.151 29.151 0 0 1 100.28 90.037 A 39.392 39.392 0 0 1 95.2 90.35 A 51.325 51.325 0 0 1 90.54 90.15 Q 88.287 89.944 86.325 89.527 A 28.322 28.322 0 0 1 85.05 89.225 Q 80.75 88.1 77.925 86.225 A 15.31 15.31 0 0 1 75.607 84.358 A 11.474 11.474 0 0 1 73.7 81.9 A 10.445 10.445 0 0 1 72.423 78.356 A 9.806 9.806 0 0 1 72.3 76.8 Q 72.3 73.2 74.5 70.75 A 12.797 12.797 0 0 1 77.317 68.429 Q 78.59 67.642 80.149 67.024 A 22.048 22.048 0 0 1 80.6 66.85 Q 78.7 65.8 77.55 64.05 Q 76.4 62.3 76.4 59.5 A 7.27 7.27 0 0 1 76.607 57.808 A 8.745 8.745 0 0 1 76.8 57.125 A 8.955 8.955 0 0 1 77.551 55.453 A 10.863 10.863 0 0 1 78.025 54.7 A 11.247 11.247 0 0 1 79.343 53.127 A 13.647 13.647 0 0 1 80.1 52.425 A 13.217 13.217 0 0 1 81.838 51.169 A 16.439 16.439 0 0 1 83.05 50.5 A 16.728 16.728 0 0 1 78.479 46.951 A 15.573 15.573 0 0 1 76.925 44.9 A 14.216 14.216 0 0 1 74.839 38.975 A 18.13 18.13 0 0 1 74.7 36.7 A 16.344 16.344 0 0 1 75.238 32.443 A 14.13 14.13 0 0 1 76.225 29.825 Q 77.75 26.75 80.475 24.575 A 18.539 18.539 0 0 1 85.071 21.911 A 22.41 22.41 0 0 1 86.925 21.25 A 25.903 25.903 0 0 1 92.366 20.213 A 31.398 31.398 0 0 1 95.05 20.1 A 28.66 28.66 0 0 1 99.398 20.419 A 24.659 24.659 0 0 1 101.25 20.775 A 21.875 21.875 0 0 1 105.24 22.104 A 19.359 19.359 0 0 1 106.55 22.75 Z M 194.85 72.3 L 182.5 72.3 L 182.5 21 L 190.05 21 A 3.874 3.874 0 0 1 191.315 21.193 Q 192.67 21.659 193.2 23.25 L 194.05 27.3 Q 195.6 25.7 197.325 24.4 Q 199.05 23.1 200.975 22.15 Q 202.9 21.2 205.1 20.7 A 19.991 19.991 0 0 1 208.006 20.271 A 24.822 24.822 0 0 1 209.9 20.2 A 21.089 21.089 0 0 1 213.848 20.554 A 16.271 16.271 0 0 1 217.35 21.625 A 14.775 14.775 0 0 1 222.499 25.308 A 14.466 14.466 0 0 1 222.775 25.625 Q 224.95 28.2 226.075 31.775 Q 227.2 35.35 227.2 39.65 L 227.2 72.3 L 214.85 72.3 L 214.85 39.65 A 16.313 16.313 0 0 0 214.619 36.81 Q 214.141 34.11 212.675 32.375 A 6.927 6.927 0 0 0 209.107 30.162 Q 207.948 29.846 206.555 29.806 A 14.19 14.19 0 0 0 206.15 29.8 Q 202.95 29.8 200.15 31.25 A 20.473 20.473 0 0 0 196.28 33.877 A 24.629 24.629 0 0 0 194.85 35.2 L 194.85 72.3 Z M 42.15 0 L 70.55 72.3 L 60.15 72.3 Q 58.4 72.3 57.275 71.425 Q 56.15 70.55 55.65 69.25 L 50.25 54.5 L 20.3 54.5 L 14.9 69.25 A 4.128 4.128 0 0 1 14.178 70.513 Q 13.832 70.936 13.356 71.325 A 7.073 7.073 0 0 1 13.325 71.35 A 4.249 4.249 0 0 1 11.094 72.264 A 5.58 5.58 0 0 1 10.45 72.3 L 0 72.3 L 28.4 0 L 42.15 0 Z M 434.95 0 L 463.35 72.3 L 452.95 72.3 Q 451.2 72.3 450.075 71.425 Q 448.95 70.55 448.45 69.25 L 443.05 54.5 L 413.1 54.5 L 407.7 69.25 A 4.128 4.128 0 0 1 406.978 70.513 Q 406.632 70.936 406.156 71.325 A 7.073 7.073 0 0 1 406.125 71.35 A 4.249 4.249 0 0 1 403.894 72.264 A 5.58 5.58 0 0 1 403.25 72.3 L 392.8 72.3 L 421.2 0 L 434.95 0 Z M 333.2 21 L 305.25 86.4 A 6.088 6.088 0 0 1 304.755 87.345 Q 304.418 87.864 304.001 88.23 A 3.59 3.59 0 0 1 303.825 88.375 A 2.755 2.755 0 0 1 303.02 88.793 Q 302.285 89.042 301.219 89.05 A 9.454 9.454 0 0 1 301.15 89.05 L 291.95 89.05 L 301.55 68.5 L 280.8 21 L 291.6 21 A 5.172 5.172 0 0 1 292.469 21.069 Q 293.35 21.219 293.9 21.7 A 4.764 4.764 0 0 1 294.827 22.783 A 4.337 4.337 0 0 1 295.1 23.3 L 306.05 49.9 Q 306.6 51.2 307 52.6 Q 307.4 54 307.7 55.4 Q 308.1 53.95 308.575 52.6 Q 309.05 51.25 309.6 49.85 L 319.9 23.3 Q 320.3 22.3 321.225 21.65 Q 322.15 21 323.3 21 L 333.2 21 Z M 169.6 48.2 L 137.9 48.2 Q 138.45 56.1 142.15 59.8 A 12.418 12.418 0 0 0 149.136 63.283 A 17.549 17.549 0 0 0 151.95 63.5 A 21.721 21.721 0 0 0 154.251 63.385 Q 155.438 63.258 156.461 62.993 A 12.021 12.021 0 0 0 157.125 62.8 A 28.744 28.744 0 0 0 159.103 62.087 Q 160.087 61.689 160.925 61.25 Q 162.321 60.52 163.423 59.9 A 62.119 62.119 0 0 0 163.775 59.7 A 5.827 5.827 0 0 1 164.814 59.228 A 4.194 4.194 0 0 1 166.15 59 A 3.16 3.16 0 0 1 166.789 59.062 A 2.373 2.373 0 0 1 167.45 59.3 A 2.817 2.817 0 0 1 168.285 60 A 3.331 3.331 0 0 1 168.4 60.15 L 172 64.65 Q 169.95 67.05 167.4 68.675 Q 164.85 70.3 162.075 71.275 Q 159.3 72.25 156.425 72.65 A 41.144 41.144 0 0 1 151.698 73.04 A 37.015 37.015 0 0 1 150.85 73.05 Q 145.5 73.05 140.9 71.275 Q 136.3 69.5 132.9 66.025 A 23.377 23.377 0 0 1 128.762 60.178 A 28.712 28.712 0 0 1 127.55 57.425 Q 125.6 52.3 125.6 45.55 A 28.799 28.799 0 0 1 126.81 37.136 A 26.85 26.85 0 0 1 127.3 35.675 A 23.845 23.845 0 0 1 131.784 28.058 A 22.939 22.939 0 0 1 132.175 27.625 A 22.74 22.74 0 0 1 139.219 22.521 A 26.28 26.28 0 0 1 139.925 22.2 Q 144.5 20.2 150.25 20.2 Q 155.1 20.2 159.175 21.75 Q 163.25 23.3 166.2 26.275 Q 169.15 29.25 170.8 33.575 Q 172.45 37.9 172.45 43.45 Q 172.45 44.85 172.325 45.775 A 5.647 5.647 0 0 1 172.218 46.352 Q 172.091 46.877 171.875 47.225 Q 171.55 47.75 171 47.975 A 2.702 2.702 0 0 1 170.504 48.121 Q 170.254 48.17 169.964 48.189 A 5.702 5.702 0 0 1 169.6 48.2 Z M 278.65 27.35 L 275.4 31.85 Q 274.952 32.42 274.521 32.791 A 4.246 4.246 0 0 1 274.325 32.95 A 1.724 1.724 0 0 1 273.803 33.215 Q 273.566 33.291 273.278 33.324 A 4.164 4.164 0 0 1 272.8 33.35 A 3.253 3.253 0 0 1 271.35 33.001 A 4.121 4.121 0 0 1 270.95 32.775 A 44.509 44.509 0 0 0 270.226 32.323 Q 269.904 32.126 269.547 31.914 A 80.34 80.34 0 0 0 268.8 31.475 Q 267.629 30.796 266.042 30.249 A 22.132 22.132 0 0 0 265.825 30.175 A 10.075 10.075 0 0 0 264.287 29.803 Q 263.523 29.676 262.645 29.629 A 20.278 20.278 0 0 0 261.55 29.6 A 15.249 15.249 0 0 0 258.679 29.858 A 11.527 11.527 0 0 0 255.85 30.775 Q 253.4 31.95 251.775 34.15 A 13.83 13.83 0 0 0 250.083 37.218 A 17.964 17.964 0 0 0 249.35 39.475 A 24.79 24.79 0 0 0 248.726 43.028 A 33.682 33.682 0 0 0 248.55 46.55 A 32.933 32.933 0 0 0 248.742 50.196 Q 248.953 52.089 249.396 53.744 A 20.451 20.451 0 0 0 249.425 53.85 A 18.401 18.401 0 0 0 250.416 56.625 A 13.624 13.624 0 0 0 251.95 59.225 Q 253.6 61.4 255.95 62.525 A 11.482 11.482 0 0 0 259.638 63.561 A 14.255 14.255 0 0 0 261.25 63.65 A 19.638 19.638 0 0 0 263.145 63.565 Q 264.065 63.475 264.84 63.292 A 8.488 8.488 0 0 0 266.025 62.925 A 18.646 18.646 0 0 0 267.512 62.262 Q 268.397 61.817 269.1 61.325 A 62.746 62.746 0 0 0 270.132 60.588 Q 270.599 60.247 271.008 59.932 A 35.643 35.643 0 0 0 271.275 59.725 Q 272.2 59 273.35 59 A 3.097 3.097 0 0 1 274.293 59.136 A 2.396 2.396 0 0 1 275.6 60.15 L 279.15 64.65 A 23.068 23.068 0 0 1 275.896 67.8 A 20.481 20.481 0 0 1 274.7 68.675 Q 272.3 70.3 269.725 71.275 Q 267.15 72.25 264.4 72.65 Q 261.65 73.05 258.95 73.05 Q 254.2 73.05 250 71.275 Q 245.8 69.5 242.675 66.1 A 23.455 23.455 0 0 1 238.993 60.704 A 29.013 29.013 0 0 1 237.725 57.775 A 28.672 28.672 0 0 1 236.225 51.621 A 38.018 38.018 0 0 1 235.9 46.55 Q 235.9 40.9 237.525 36.075 A 24.452 24.452 0 0 1 240.734 29.69 A 22.346 22.346 0 0 1 242.3 27.725 A 21.645 21.645 0 0 1 249.241 22.589 A 25.17 25.17 0 0 1 250.1 22.2 A 24.105 24.105 0 0 1 256.115 20.53 A 31.944 31.944 0 0 1 260.8 20.2 A 30.27 30.27 0 0 1 265.798 20.593 A 22.175 22.175 0 0 1 270.875 22.05 Q 275.2 23.9 278.65 27.35 Z M 353.1 79 L 392.5 79 L 392.5 87 L 353.1 87 L 353.1 79 Z M 32.55 21.05 L 23.75 45 L 46.8 45 L 38 20.95 A 82.81 82.81 0 0 1 37.532 19.669 Q 37.33 19.102 37.116 18.478 A 147.063 147.063 0 0 1 36.675 17.175 A 82.608 82.608 0 0 1 35.956 14.906 A 102.313 102.313 0 0 1 35.25 12.45 A 184.724 184.724 0 0 1 34.556 14.913 A 149.988 149.988 0 0 1 33.875 17.2 A 65.911 65.911 0 0 1 33.289 19.02 Q 33.009 19.847 32.733 20.575 A 37.503 37.503 0 0 1 32.55 21.05 Z M 425.35 21.05 L 416.55 45 L 439.6 45 L 430.8 20.95 A 82.81 82.81 0 0 1 430.332 19.669 Q 430.13 19.102 429.916 18.478 A 147.063 147.063 0 0 1 429.475 17.175 A 82.608 82.608 0 0 1 428.756 14.906 A 102.313 102.313 0 0 1 428.05 12.45 A 184.724 184.724 0 0 1 427.356 14.913 A 149.988 149.988 0 0 1 426.675 17.2 A 65.911 65.911 0 0 1 426.089 19.02 Q 425.809 19.847 425.533 20.575 A 37.503 37.503 0 0 1 425.35 21.05 Z M 484.7 10.4 L 484.7 34.4 L 493.1 34.4 A 25.696 25.696 0 0 0 496.238 34.218 Q 497.869 34.017 499.272 33.595 A 15.041 15.041 0 0 0 499.725 33.45 Q 502.55 32.5 504.375 30.825 Q 506.2 29.15 507.1 26.85 A 13.182 13.182 0 0 0 507.944 23.147 A 15.842 15.842 0 0 0 508 21.8 A 13.347 13.347 0 0 0 507.572 18.32 A 9.393 9.393 0 0 0 504.375 13.35 Q 501.803 11.257 497.304 10.649 A 29.988 29.988 0 0 0 493.3 10.4 L 484.7 10.4 Z M 108.6 74.6 A 4.084 4.084 0 0 0 108.451 73.472 A 3.157 3.157 0 0 0 107.7 72.15 A 5.084 5.084 0 0 0 106.521 71.238 Q 105.952 70.913 105.25 70.675 A 14.888 14.888 0 0 0 103.682 70.243 Q 102.862 70.063 101.932 69.939 A 25.341 25.341 0 0 0 101.625 69.9 A 63.552 63.552 0 0 0 98.654 69.616 A 74.664 74.664 0 0 0 97.225 69.525 Q 94.9 69.4 92.425 69.275 A 61.295 61.295 0 0 1 88.228 68.922 A 55.526 55.526 0 0 1 87.65 68.85 A 12.766 12.766 0 0 0 85.756 70.106 A 9.884 9.884 0 0 0 84.275 71.575 Q 83 73.15 83 75.2 Q 83 76.55 83.675 77.725 A 4.829 4.829 0 0 0 84.653 78.913 Q 85.157 79.365 85.825 79.75 A 9.376 9.376 0 0 0 87.168 80.379 Q 87.847 80.638 88.647 80.845 A 19.033 19.033 0 0 0 89.65 81.075 A 21.152 21.152 0 0 0 91.56 81.365 Q 92.629 81.48 93.856 81.524 A 43.559 43.559 0 0 0 95.4 81.55 A 38.193 38.193 0 0 0 98.046 81.464 Q 99.297 81.377 100.39 81.202 A 20.122 20.122 0 0 0 101.35 81.025 Q 103.85 80.5 105.475 79.575 A 7.879 7.879 0 0 0 106.651 78.766 Q 107.405 78.132 107.85 77.375 Q 108.6 76.1 108.6 74.6 Z M 138.15 40.75 L 161.35 40.75 A 15.788 15.788 0 0 0 160.957 37.185 A 14.254 14.254 0 0 0 160.7 36.225 A 10.573 10.573 0 0 0 159.105 33.013 A 9.996 9.996 0 0 0 158.7 32.5 A 9.352 9.352 0 0 0 155.682 30.157 A 10.954 10.954 0 0 0 155.3 29.975 A 10.152 10.152 0 0 0 152.772 29.227 A 13.909 13.909 0 0 0 150.5 29.05 A 15.425 15.425 0 0 0 147.065 29.411 Q 144.052 30.099 142.05 32.1 A 12.426 12.426 0 0 0 139.431 36.058 Q 138.549 38.124 138.15 40.75 Z M 95.05 45.4 A 14.281 14.281 0 0 0 96.948 45.281 Q 97.95 45.146 98.808 44.86 A 8.439 8.439 0 0 0 99.05 44.775 A 8.74 8.74 0 0 0 100.694 43.977 A 7.058 7.058 0 0 0 101.875 43.05 Q 103 41.95 103.575 40.4 A 9.269 9.269 0 0 0 104.109 37.962 A 11.185 11.185 0 0 0 104.15 37 A 10.255 10.255 0 0 0 103.843 34.422 A 7.273 7.273 0 0 0 101.875 30.975 A 7.124 7.124 0 0 0 99.137 29.342 Q 97.396 28.75 95.05 28.75 Q 90.5 28.75 88.225 30.975 A 7.395 7.395 0 0 0 86.131 34.981 A 10.739 10.739 0 0 0 85.95 37 A 9.924 9.924 0 0 0 86.241 39.433 A 8.856 8.856 0 0 0 86.525 40.35 Q 87.1 41.9 88.225 43.025 A 7.113 7.113 0 0 0 90.008 44.311 A 9.024 9.024 0 0 0 91.075 44.775 A 10.088 10.088 0 0 0 93.056 45.263 A 13.791 13.791 0 0 0 95.05 45.4 Z" vector-effect="non-scaling-stroke"/></g></svg>